<?xml version="1.0" standalone="no"?>
<!DOCTYPE svg PUBLIC "-//W3C//DTD SVG 20010904//EN"
 "http://www.w3.org/TR/2001/REC-SVG-20010904/DTD/svg10.dtd">
<svg version="1.0" xmlns="http://www.w3.org/2000/svg"
 width="1000.000000pt" height="254.000000pt" viewBox="0 0 1000.000000 254.000000"
 preserveAspectRatio="xMidYMid meet">

<g transform="translate(0.000000,254.000000) scale(0.100000,-0.100000)"
fill="#fff" stroke="none">
<path d="M6330 1270 l0 -1230 35 0 35 0 0 1230 0 1230 -35 0 -35 0 0 -1230z"/>
<path d="M4190 2320 c-459 -82 -808 -357 -915 -725 -72 -246 -30 -533 107
-732 l29 -43 -506 0 -505 0 0 740 0 740 -1180 0 -1180 0 0 -955 0 -955 265 0
265 0 0 390 0 390 383 0 382 0 195 195 195 195 -578 0 -577 0 0 165 0 165 527
0 528 0 122 122 123 123 0 -873 0 -872 895 0 895 0 0 90 c0 50 2 90 5 90 3 0
22 -11 43 -24 129 -81 316 -151 487 -182 136 -24 421 -25 554 0 170 31 391
115 493 188 l28 19 8 -23 c5 -13 17 -53 27 -90 l18 -68 168 0 169 0 0 490 0
490 -585 0 -585 0 0 -155 0 -155 286 0 285 0 -18 -31 c-33 -56 -139 -147 -217
-184 -117 -56 -212 -77 -351 -77 -209 0 -374 60 -494 181 -111 111 -161 234
-161 396 0 158 47 273 160 386 119 121 253 176 452 186 286 15 541 -96 632
-275 l26 -52 275 0 c317 0 294 -10 250 107 -124 329 -429 549 -862 623 -154
27 -413 26 -563 0z"/>
<path d="M7650 2301 c-126 -39 -190 -124 -190 -252 0 -121 61 -208 173 -245
64 -21 166 -15 223 14 48 24 100 81 121 131 23 54 19 162 -7 216 -52 108 -202
172 -320 136z m168 -80 c46 -23 67 -46 87 -94 47 -113 -16 -237 -136 -267
-169 -42 -303 152 -207 298 51 76 172 106 256 63z"/>
<path d="M9687 2296 c-75 -28 -116 -92 -103 -161 10 -52 60 -88 157 -115 108
-29 137 -44 145 -77 22 -85 -128 -121 -246 -60 l-49 25 -10 -29 c-9 -27 -8
-31 21 -49 72 -44 217 -52 286 -16 71 37 95 137 47 195 -26 30 -58 45 -181 80
-74 22 -87 30 -98 69 -6 17 0 29 22 51 41 41 100 49 177 22 62 -21 69 -19 79
15 5 16 -1 24 -31 38 -51 24 -167 31 -216 12z"/>
<path d="M7040 2045 l0 -255 35 0 35 0 0 105 0 105 130 0 130 0 0 30 0 29
-127 3 -128 3 0 85 0 85 143 3 142 3 0 29 0 30 -180 0 -180 0 0 -255z"/>
<path d="M8110 2045 l0 -255 35 0 35 0 0 80 0 80 78 0 78 0 55 -77 c50 -71 58
-78 92 -81 20 -2 37 0 37 4 0 3 -25 43 -57 87 -41 59 -52 82 -42 86 30 9 78
69 89 110 15 57 -2 129 -38 164 -49 47 -90 57 -232 57 l-130 0 0 -255z m264
181 c45 -19 66 -52 66 -102 0 -82 -53 -114 -187 -114 l-73 0 0 115 0 115 80 0
c46 0 95 -6 114 -14z"/>
<path d="M8550 2270 l0 -29 88 -3 87 -3 3 -222 2 -223 35 0 35 0 0 225 0 225
85 0 85 0 0 30 0 30 -210 0 -210 0 0 -30z"/>
<path d="M9040 2122 c0 -171 1 -180 26 -229 20 -42 35 -57 77 -77 97 -49 224
-28 280 45 39 52 47 100 47 277 l0 162 -34 0 -34 0 -4 -172 c-3 -188 -12 -220
-64 -254 -34 -23 -123 -23 -157 -1 -57 37 -62 56 -65 249 l-4 178 -34 0 -34 0
0 -178z"/>
<path d="M7040 1345 l0 -255 175 0 175 0 0 30 0 29 -137 3 -138 3 -3 223 -2
222 -35 0 -35 0 0 -255z"/>
<path d="M7627 1593 c-8 -12 -227 -495 -227 -499 0 -2 17 -4 38 -4 38 0 39 1
64 63 l26 62 133 0 134 0 29 -62 c29 -61 31 -63 67 -63 32 0 37 3 32 16 -3 10
-55 123 -114 253 l-107 236 -35 3 c-19 2 -38 -1 -40 -5z m93 -203 c28 -62 50
-114 50 -116 0 -2 -47 -4 -105 -4 -58 0 -105 4 -105 9 0 4 13 37 29 72 15 35
38 86 50 113 12 27 24 47 26 44 3 -3 28 -56 55 -118z"/>
<path d="M7930 1593 c0 -4 37 -119 82 -255 l83 -248 40 0 40 0 64 188 c35 103
67 191 71 195 4 4 36 -79 72 -185 l65 -193 40 -3 41 -3 81 243 c45 134 81 249
81 256 0 9 -11 12 -32 10 l-31 -3 -63 -186 c-34 -103 -66 -194 -71 -203 -6
-11 -27 41 -77 189 l-67 205 -34 0 c-28 0 -35 -5 -45 -32 -6 -18 -33 -96 -60
-173 -79 -230 -62 -230 -139 0 l-68 200 -36 3 c-20 2 -37 0 -37 -5z"/>
<path d="M7210 891 c-56 -13 -85 -28 -124 -62 -60 -53 -81 -101 -81 -194 0
-70 4 -86 28 -128 33 -55 93 -102 151 -118 63 -17 173 -7 229 20 l47 23 0 104
0 104 -35 0 -35 0 0 -85 c0 -84 -1 -86 -27 -97 -16 -6 -55 -12 -88 -12 -76 -1
-137 31 -170 89 -106 182 81 365 273 268 50 -25 54 -26 70 -10 51 52 -125 124
-238 98z"/>
<path d="M8278 887 c-53 -15 -106 -53 -141 -100 -75 -100 -58 -264 34 -341 61
-52 112 -68 198 -65 98 5 161 36 208 101 92 128 54 306 -82 380 -62 33 -151
43 -217 25z m159 -72 c74 -31 114 -94 114 -180 0 -82 -44 -146 -123 -179 -154
-65 -317 98 -253 252 43 101 161 149 262 107z"/>
<path d="M7600 635 l0 -255 35 0 34 0 3 78 3 77 77 3 77 3 56 -81 c55 -77 58
-80 96 -80 46 0 47 -6 -23 93 -26 37 -48 70 -48 75 0 4 15 17 34 29 42 27 66
78 66 140 0 71 -26 113 -90 146 -51 25 -61 27 -187 27 l-133 0 0 -255z m252
185 c74 -21 107 -94 72 -161 -22 -43 -68 -59 -169 -59 l-85 0 0 108 c0 60 3
112 7 115 10 11 134 8 175 -3z"/>
<path d="M8732 713 c4 -184 13 -229 56 -277 63 -70 240 -75 316 -8 47 42 56
86 56 280 l0 182 -35 0 -35 0 0 -172 c0 -197 -9 -230 -70 -260 -71 -36 -161
-12 -192 52 -15 29 -18 63 -18 208 l0 172 -41 0 -41 0 4 -177z"/>
<path d="M9312 638 l3 -253 35 0 35 0 3 78 3 77 97 0 c114 0 171 22 210 80 20
30 23 45 20 100 -4 77 -28 118 -85 146 -31 15 -66 20 -181 22 l-142 3 2 -253z
m284 169 c38 -20 59 -65 51 -113 -12 -70 -57 -94 -177 -94 l-80 0 0 116 0 116
88 -4 c53 -3 99 -11 118 -21z"/>
</g>
</svg>
